# xmcd
#
# Track frame offsets: 
#        150
#        19162
#        38518
#        57952
#        81855
#        102820
#        134470
#        151430
#        167281
#        188860
#
# Disc length: 2886 seconds
#
# Revision: 0
# Processed by: cddbd v1.5.2PL0 Copyright (c) Steve Scherf et al.
# Submitted via: ExactAudioCopy v0.90b4
#
DISCID=730b440a
DTITLE=More Than 6 - Different Places
DYEAR=2006
DGENRE=Blues
TTITLE0=different places
TTITLE1=monday
TTITLE2=son of a gipsy
TTITLE3=all that i need
TTITLE4=more than 6
TTITLE5=wasting
TTITLE6=dealin' feelin'
TTITLE7=lady manhattan
TTITLE8=worker
TTITLE9=back home
EXTD=more info:\nwww.morethan6.de
EXTT0=
EXTT1=
EXTT2=
EXTT3=
EXTT4=
EXTT5=
EXTT6=
EXTT7=
EXTT8=
EXTT9=
PLAYORDER=
